<mxfile host="app.diagrams.net" modified="2023-10-31T13:56:31.996Z" agent="Mozilla/5.0 (Windows NT 10.0; Win64; x64) AppleWebKit/537.36 (KHTML, like Gecko) Chrome/118.0.0.0 Safari/537.36" etag="5L6iUG2OwUMdid9ZGRr1" version="22.0.8" type="device">
  <diagram name="페이지-1" id="ihgn2qk1dA9eNUEs22e4">
    <mxGraphModel dx="2075" dy="1110" grid="1" gridSize="10" guides="1" tooltips="1" connect="1" arrows="1" fold="1" page="1" pageScale="1" pageWidth="827" pageHeight="1169" math="0" shadow="0">
      <root>
        <mxCell id="0" />
        <mxCell id="1" parent="0" />
        <mxCell id="DkVkti0r2QzLRd1-k03_-43" style="edgeStyle=orthogonalEdgeStyle;rounded=0;orthogonalLoop=1;jettySize=auto;html=1;exitX=1;exitY=0.75;exitDx=0;exitDy=0;entryX=0;entryY=0.75;entryDx=0;entryDy=0;" edge="1" parent="1" source="DkVkti0r2QzLRd1-k03_-1" target="DkVkti0r2QzLRd1-k03_-8">
          <mxGeometry relative="1" as="geometry" />
        </mxCell>
        <mxCell id="DkVkti0r2QzLRd1-k03_-1" value="" style="rounded=0;whiteSpace=wrap;html=1;" vertex="1" parent="1">
          <mxGeometry x="120" y="320" width="240" height="160" as="geometry" />
        </mxCell>
        <mxCell id="DkVkti0r2QzLRd1-k03_-2" value="게임 시작" style="rounded=1;whiteSpace=wrap;html=1;" vertex="1" parent="1">
          <mxGeometry x="200" y="400" width="80" height="30" as="geometry" />
        </mxCell>
        <mxCell id="DkVkti0r2QzLRd1-k03_-3" value="끝내기" style="rounded=1;whiteSpace=wrap;html=1;" vertex="1" parent="1">
          <mxGeometry x="200" y="440" width="80" height="30" as="geometry" />
        </mxCell>
        <mxCell id="DkVkti0r2QzLRd1-k03_-6" value="Two Arms" style="text;html=1;align=center;verticalAlign=middle;resizable=0;points=[];autosize=1;strokeColor=none;fillColor=none;" vertex="1" parent="1">
          <mxGeometry x="190" y="340" width="80" height="30" as="geometry" />
        </mxCell>
        <mxCell id="DkVkti0r2QzLRd1-k03_-7" value="&lt;font style=&quot;font-size: 24px;&quot;&gt;Cactus!&lt;/font&gt;" style="text;html=1;align=center;verticalAlign=middle;resizable=0;points=[];autosize=1;strokeColor=none;fillColor=none;" vertex="1" parent="1">
          <mxGeometry x="190" y="350" width="100" height="40" as="geometry" />
        </mxCell>
        <mxCell id="DkVkti0r2QzLRd1-k03_-33" style="edgeStyle=orthogonalEdgeStyle;rounded=0;orthogonalLoop=1;jettySize=auto;html=1;exitX=1;exitY=0.5;exitDx=0;exitDy=0;entryX=0;entryY=0.5;entryDx=0;entryDy=0;" edge="1" parent="1" source="DkVkti0r2QzLRd1-k03_-8" target="DkVkti0r2QzLRd1-k03_-21">
          <mxGeometry relative="1" as="geometry" />
        </mxCell>
        <mxCell id="DkVkti0r2QzLRd1-k03_-44" style="edgeStyle=orthogonalEdgeStyle;rounded=0;orthogonalLoop=1;jettySize=auto;html=1;exitX=0;exitY=0.25;exitDx=0;exitDy=0;entryX=1;entryY=0.25;entryDx=0;entryDy=0;" edge="1" parent="1" source="DkVkti0r2QzLRd1-k03_-8" target="DkVkti0r2QzLRd1-k03_-1">
          <mxGeometry relative="1" as="geometry" />
        </mxCell>
        <mxCell id="DkVkti0r2QzLRd1-k03_-8" value="" style="rounded=0;whiteSpace=wrap;html=1;" vertex="1" parent="1">
          <mxGeometry x="440" y="320" width="240" height="160" as="geometry" />
        </mxCell>
        <mxCell id="DkVkti0r2QzLRd1-k03_-9" value="&lt;font style=&quot;font-size: 18px;&quot;&gt;Select Level&lt;/font&gt;" style="text;html=1;align=center;verticalAlign=middle;resizable=0;points=[];autosize=1;strokeColor=none;fillColor=none;" vertex="1" parent="1">
          <mxGeometry x="500" y="335" width="120" height="40" as="geometry" />
        </mxCell>
        <mxCell id="DkVkti0r2QzLRd1-k03_-10" value="2LV" style="rounded=1;whiteSpace=wrap;html=1;" vertex="1" parent="1">
          <mxGeometry x="535" y="385" width="50" height="35" as="geometry" />
        </mxCell>
        <mxCell id="DkVkti0r2QzLRd1-k03_-13" value="1LV" style="rounded=1;whiteSpace=wrap;html=1;" vertex="1" parent="1">
          <mxGeometry x="470" y="385" width="50" height="35" as="geometry" />
        </mxCell>
        <mxCell id="DkVkti0r2QzLRd1-k03_-14" value="3LV" style="rounded=1;whiteSpace=wrap;html=1;" vertex="1" parent="1">
          <mxGeometry x="600" y="385" width="50" height="35" as="geometry" />
        </mxCell>
        <mxCell id="DkVkti0r2QzLRd1-k03_-15" value="4LV" style="rounded=1;whiteSpace=wrap;html=1;" vertex="1" parent="1">
          <mxGeometry x="470" y="430" width="50" height="35" as="geometry" />
        </mxCell>
        <mxCell id="DkVkti0r2QzLRd1-k03_-16" value="5LV" style="rounded=1;whiteSpace=wrap;html=1;" vertex="1" parent="1">
          <mxGeometry x="535" y="430" width="50" height="35" as="geometry" />
        </mxCell>
        <mxCell id="DkVkti0r2QzLRd1-k03_-17" value="6LV" style="rounded=1;whiteSpace=wrap;html=1;" vertex="1" parent="1">
          <mxGeometry x="600" y="430" width="50" height="35" as="geometry" />
        </mxCell>
        <mxCell id="DkVkti0r2QzLRd1-k03_-18" value="" style="triangle;whiteSpace=wrap;html=1;rotation=-180;" vertex="1" parent="1">
          <mxGeometry x="450" y="415" width="10" height="20" as="geometry" />
        </mxCell>
        <mxCell id="DkVkti0r2QzLRd1-k03_-19" value="" style="triangle;whiteSpace=wrap;html=1;" vertex="1" parent="1">
          <mxGeometry x="660" y="415" width="10" height="20" as="geometry" />
        </mxCell>
        <mxCell id="DkVkti0r2QzLRd1-k03_-86" style="edgeStyle=orthogonalEdgeStyle;rounded=0;orthogonalLoop=1;jettySize=auto;html=1;exitX=0.5;exitY=1;exitDx=0;exitDy=0;entryX=0.5;entryY=0;entryDx=0;entryDy=0;" edge="1" parent="1" source="DkVkti0r2QzLRd1-k03_-21" target="DkVkti0r2QzLRd1-k03_-71">
          <mxGeometry relative="1" as="geometry" />
        </mxCell>
        <mxCell id="DkVkti0r2QzLRd1-k03_-87" style="edgeStyle=orthogonalEdgeStyle;rounded=0;orthogonalLoop=1;jettySize=auto;html=1;exitX=1;exitY=0.5;exitDx=0;exitDy=0;entryX=0;entryY=0.5;entryDx=0;entryDy=0;" edge="1" parent="1" source="DkVkti0r2QzLRd1-k03_-21" target="DkVkti0r2QzLRd1-k03_-63">
          <mxGeometry relative="1" as="geometry" />
        </mxCell>
        <mxCell id="DkVkti0r2QzLRd1-k03_-21" value="" style="rounded=0;whiteSpace=wrap;html=1;" vertex="1" parent="1">
          <mxGeometry x="760" y="320" width="240" height="160" as="geometry" />
        </mxCell>
        <mxCell id="DkVkti0r2QzLRd1-k03_-53" value="" style="shape=requiredInterface;html=1;verticalLabelPosition=bottom;sketch=0;rotation=-90;" vertex="1" parent="1">
          <mxGeometry x="866.12" y="320" width="27.75" height="240" as="geometry" />
        </mxCell>
        <mxCell id="DkVkti0r2QzLRd1-k03_-48" value="" style="html=1;shadow=0;dashed=0;align=center;verticalAlign=middle;shape=mxgraph.arrows2.arrow;dy=0;dx=10;notch=0;rotation=-90;" vertex="1" parent="1">
          <mxGeometry x="930" y="435" width="60" height="30" as="geometry" />
        </mxCell>
        <mxCell id="DkVkti0r2QzLRd1-k03_-49" value="" style="ellipse;whiteSpace=wrap;html=1;aspect=fixed;" vertex="1" parent="1">
          <mxGeometry x="780" y="390" width="50" height="50" as="geometry" />
        </mxCell>
        <mxCell id="DkVkti0r2QzLRd1-k03_-47" value="" style="html=1;shadow=0;dashed=0;align=center;verticalAlign=middle;shape=mxgraph.arrows2.arrow;dy=0;dx=10;notch=0;rotation=-90;" vertex="1" parent="1">
          <mxGeometry x="770" y="435" width="60" height="30" as="geometry" />
        </mxCell>
        <mxCell id="DkVkti0r2QzLRd1-k03_-56" value="" style="ellipse;whiteSpace=wrap;html=1;" vertex="1" parent="1">
          <mxGeometry x="900" y="400" width="30" height="30" as="geometry" />
        </mxCell>
        <mxCell id="DkVkti0r2QzLRd1-k03_-55" value="" style="shape=or;whiteSpace=wrap;html=1;rotation=-90;" vertex="1" parent="1">
          <mxGeometry x="900" y="370" width="30" height="50" as="geometry" />
        </mxCell>
        <mxCell id="DkVkti0r2QzLRd1-k03_-58" value="&lt;font style=&quot;font-size: 14px;&quot;&gt;제한 시간: 00:00&lt;/font&gt;" style="text;html=1;align=center;verticalAlign=middle;resizable=0;points=[];autosize=1;strokeColor=none;fillColor=none;" vertex="1" parent="1">
          <mxGeometry x="814.99" y="330" width="130" height="30" as="geometry" />
        </mxCell>
        <mxCell id="DkVkti0r2QzLRd1-k03_-92" style="edgeStyle=orthogonalEdgeStyle;rounded=0;orthogonalLoop=1;jettySize=auto;html=1;exitX=0.5;exitY=0;exitDx=0;exitDy=0;entryX=0.5;entryY=0;entryDx=0;entryDy=0;" edge="1" parent="1" source="DkVkti0r2QzLRd1-k03_-63" target="DkVkti0r2QzLRd1-k03_-8">
          <mxGeometry relative="1" as="geometry">
            <Array as="points">
              <mxPoint x="1200" y="280" />
              <mxPoint x="560" y="280" />
            </Array>
          </mxGeometry>
        </mxCell>
        <mxCell id="DkVkti0r2QzLRd1-k03_-96" style="edgeStyle=orthogonalEdgeStyle;rounded=0;orthogonalLoop=1;jettySize=auto;html=1;exitX=0.5;exitY=0;exitDx=0;exitDy=0;entryX=0.5;entryY=0;entryDx=0;entryDy=0;" edge="1" parent="1" source="DkVkti0r2QzLRd1-k03_-63" target="DkVkti0r2QzLRd1-k03_-21">
          <mxGeometry relative="1" as="geometry">
            <Array as="points">
              <mxPoint x="1200" y="280" />
              <mxPoint x="880" y="280" />
            </Array>
          </mxGeometry>
        </mxCell>
        <mxCell id="DkVkti0r2QzLRd1-k03_-63" value="" style="rounded=0;whiteSpace=wrap;html=1;" vertex="1" parent="1">
          <mxGeometry x="1080" y="320" width="240" height="160" as="geometry" />
        </mxCell>
        <mxCell id="DkVkti0r2QzLRd1-k03_-64" value="" style="shape=requiredInterface;html=1;verticalLabelPosition=bottom;sketch=0;rotation=-90;" vertex="1" parent="1">
          <mxGeometry x="1186.12" y="320" width="27.75" height="240" as="geometry" />
        </mxCell>
        <mxCell id="DkVkti0r2QzLRd1-k03_-65" value="" style="html=1;shadow=0;dashed=0;align=center;verticalAlign=middle;shape=mxgraph.arrows2.arrow;dy=0;dx=10;notch=0;rotation=-90;" vertex="1" parent="1">
          <mxGeometry x="1250" y="435" width="60" height="30" as="geometry" />
        </mxCell>
        <mxCell id="DkVkti0r2QzLRd1-k03_-66" value="" style="ellipse;whiteSpace=wrap;html=1;aspect=fixed;" vertex="1" parent="1">
          <mxGeometry x="1100" y="390" width="50" height="50" as="geometry" />
        </mxCell>
        <mxCell id="DkVkti0r2QzLRd1-k03_-67" value="" style="html=1;shadow=0;dashed=0;align=center;verticalAlign=middle;shape=mxgraph.arrows2.arrow;dy=0;dx=10;notch=0;rotation=-90;" vertex="1" parent="1">
          <mxGeometry x="1090" y="435" width="60" height="30" as="geometry" />
        </mxCell>
        <mxCell id="DkVkti0r2QzLRd1-k03_-68" value="" style="ellipse;whiteSpace=wrap;html=1;" vertex="1" parent="1">
          <mxGeometry x="1220" y="400" width="30" height="30" as="geometry" />
        </mxCell>
        <mxCell id="DkVkti0r2QzLRd1-k03_-69" value="" style="shape=or;whiteSpace=wrap;html=1;rotation=-90;" vertex="1" parent="1">
          <mxGeometry x="1220" y="370" width="30" height="50" as="geometry" />
        </mxCell>
        <mxCell id="DkVkti0r2QzLRd1-k03_-93" style="edgeStyle=orthogonalEdgeStyle;rounded=0;orthogonalLoop=1;jettySize=auto;html=1;exitX=0;exitY=0.5;exitDx=0;exitDy=0;entryX=0;entryY=0.5;entryDx=0;entryDy=0;" edge="1" parent="1" source="DkVkti0r2QzLRd1-k03_-71" target="DkVkti0r2QzLRd1-k03_-21">
          <mxGeometry relative="1" as="geometry">
            <Array as="points">
              <mxPoint x="720" y="640" />
              <mxPoint x="720" y="400" />
            </Array>
          </mxGeometry>
        </mxCell>
        <mxCell id="DkVkti0r2QzLRd1-k03_-94" style="edgeStyle=orthogonalEdgeStyle;rounded=0;orthogonalLoop=1;jettySize=auto;html=1;exitX=0;exitY=0.5;exitDx=0;exitDy=0;entryX=0.5;entryY=1;entryDx=0;entryDy=0;" edge="1" parent="1" source="DkVkti0r2QzLRd1-k03_-71" target="DkVkti0r2QzLRd1-k03_-8">
          <mxGeometry relative="1" as="geometry" />
        </mxCell>
        <mxCell id="DkVkti0r2QzLRd1-k03_-71" value="" style="rounded=0;whiteSpace=wrap;html=1;" vertex="1" parent="1">
          <mxGeometry x="759.99" y="560" width="240" height="160" as="geometry" />
        </mxCell>
        <mxCell id="DkVkti0r2QzLRd1-k03_-72" value="" style="shape=requiredInterface;html=1;verticalLabelPosition=bottom;sketch=0;rotation=-90;" vertex="1" parent="1">
          <mxGeometry x="866.11" y="560" width="27.75" height="240" as="geometry" />
        </mxCell>
        <mxCell id="DkVkti0r2QzLRd1-k03_-73" value="" style="html=1;shadow=0;dashed=0;align=center;verticalAlign=middle;shape=mxgraph.arrows2.arrow;dy=0;dx=10;notch=0;rotation=-90;" vertex="1" parent="1">
          <mxGeometry x="929.99" y="675" width="60" height="30" as="geometry" />
        </mxCell>
        <mxCell id="DkVkti0r2QzLRd1-k03_-74" value="" style="ellipse;whiteSpace=wrap;html=1;aspect=fixed;" vertex="1" parent="1">
          <mxGeometry x="779.99" y="630" width="50" height="50" as="geometry" />
        </mxCell>
        <mxCell id="DkVkti0r2QzLRd1-k03_-75" value="" style="html=1;shadow=0;dashed=0;align=center;verticalAlign=middle;shape=mxgraph.arrows2.arrow;dy=0;dx=10;notch=0;rotation=-90;" vertex="1" parent="1">
          <mxGeometry x="769.99" y="675" width="60" height="30" as="geometry" />
        </mxCell>
        <mxCell id="DkVkti0r2QzLRd1-k03_-76" value="" style="ellipse;whiteSpace=wrap;html=1;" vertex="1" parent="1">
          <mxGeometry x="899.99" y="640" width="30" height="30" as="geometry" />
        </mxCell>
        <mxCell id="DkVkti0r2QzLRd1-k03_-77" value="" style="shape=or;whiteSpace=wrap;html=1;rotation=-90;" vertex="1" parent="1">
          <mxGeometry x="899.99" y="610" width="30" height="50" as="geometry" />
        </mxCell>
        <mxCell id="DkVkti0r2QzLRd1-k03_-28" value="&lt;font style=&quot;font-size: 18px;&quot;&gt;Mission Clear!&lt;br&gt;&lt;/font&gt;" style="text;html=1;align=center;verticalAlign=middle;resizable=0;points=[];autosize=1;strokeColor=none;fillColor=none;" vertex="1" parent="1">
          <mxGeometry x="1129.99" y="325" width="140" height="40" as="geometry" />
        </mxCell>
        <mxCell id="DkVkti0r2QzLRd1-k03_-30" value="다음 라운드" style="rounded=1;whiteSpace=wrap;html=1;" vertex="1" parent="1">
          <mxGeometry x="1160" y="387.5" width="80" height="20" as="geometry" />
        </mxCell>
        <mxCell id="DkVkti0r2QzLRd1-k03_-31" value="재도전" style="rounded=1;whiteSpace=wrap;html=1;" vertex="1" parent="1">
          <mxGeometry x="1160" y="417.5" width="80" height="20" as="geometry" />
        </mxCell>
        <mxCell id="DkVkti0r2QzLRd1-k03_-32" value="돌아가기" style="rounded=1;whiteSpace=wrap;html=1;" vertex="1" parent="1">
          <mxGeometry x="1160" y="447.5" width="80" height="20" as="geometry" />
        </mxCell>
        <mxCell id="DkVkti0r2QzLRd1-k03_-25" value="&lt;font style=&quot;font-size: 18px;&quot;&gt;Mission Fail&lt;br&gt;&lt;/font&gt;" style="text;html=1;align=center;verticalAlign=middle;resizable=0;points=[];autosize=1;strokeColor=none;fillColor=none;" vertex="1" parent="1">
          <mxGeometry x="820" y="585" width="120" height="40" as="geometry" />
        </mxCell>
        <mxCell id="DkVkti0r2QzLRd1-k03_-26" value="재도전" style="rounded=1;whiteSpace=wrap;html=1;" vertex="1" parent="1">
          <mxGeometry x="840" y="635" width="80" height="30" as="geometry" />
        </mxCell>
        <mxCell id="DkVkti0r2QzLRd1-k03_-27" value="돌아가기" style="rounded=1;whiteSpace=wrap;html=1;" vertex="1" parent="1">
          <mxGeometry x="840" y="675" width="80" height="30" as="geometry" />
        </mxCell>
        <mxCell id="DkVkti0r2QzLRd1-k03_-83" value="" style="verticalLabelPosition=bottom;verticalAlign=top;html=1;shape=mxgraph.basic.heart" vertex="1" parent="1">
          <mxGeometry x="1184.9899999999998" y="357.5" width="30" height="25" as="geometry" />
        </mxCell>
        <mxCell id="DkVkti0r2QzLRd1-k03_-84" value="" style="verticalLabelPosition=bottom;verticalAlign=top;html=1;shape=mxgraph.basic.heart" vertex="1" parent="1">
          <mxGeometry x="1149.9999999999998" y="357.5" width="30" height="25" as="geometry" />
        </mxCell>
        <mxCell id="DkVkti0r2QzLRd1-k03_-85" value="" style="verticalLabelPosition=bottom;verticalAlign=top;html=1;shape=mxgraph.basic.heart" vertex="1" parent="1">
          <mxGeometry x="1219.9999999999998" y="357.5" width="30" height="25" as="geometry" />
        </mxCell>
      </root>
    </mxGraphModel>
  </diagram>
</mxfile>
